<svg width="26" height="26" viewBox="0 0 26 26" fill="none" xmlns="http://www.w3.org/2000/svg">
<path d="M13.0833 9.53804C15.0333 9.53804 16.6287 11.1335 16.6287 13.0835C16.6287 15.0335 15.0333 16.6289 13.0833 16.6289C11.1333 16.6289 9.5378 15.0335 9.5378 13.0835C9.5378 11.1335 11.1333 9.53804 13.0833 9.53804ZM13.0833 7.1744C9.82143 7.1744 7.17416 9.82168 7.17416 13.0835C7.17416 16.3453 9.82143 18.9926 13.0833 18.9926C16.3451 18.9926 18.9923 16.3453 18.9923 13.0835C18.9923 9.82168 16.3451 7.1744 13.0833 7.1744ZM1.26507 14.2653H3.62871C4.27871 14.2653 4.81052 13.7335 4.81052 13.0835C4.81052 12.4335 4.27871 11.9017 3.62871 11.9017H1.26507C0.61507 11.9017 0.083252 12.4335 0.083252 13.0835C0.083252 13.7335 0.61507 14.2653 1.26507 14.2653ZM22.5378 14.2653H24.9014C25.5514 14.2653 26.0833 13.7335 26.0833 13.0835C26.0833 12.4335 25.5514 11.9017 24.9014 11.9017H22.5378C21.8878 11.9017 21.356 12.4335 21.356 13.0835C21.356 13.7335 21.8878 14.2653 22.5378 14.2653ZM11.9014 1.26531V3.62895C11.9014 4.27895 12.4333 4.81077 13.0833 4.81077C13.7333 4.81077 14.2651 4.27895 14.2651 3.62895V1.26531C14.2651 0.615314 13.7333 0.0834961 13.0833 0.0834961C12.4333 0.0834961 11.9014 0.615314 11.9014 1.26531ZM11.9014 22.538V24.9017C11.9014 25.5517 12.4333 26.0835 13.0833 26.0835C13.7333 26.0835 14.2651 25.5517 14.2651 24.9017V22.538C14.2651 21.888 13.7333 21.3562 13.0833 21.3562C12.4333 21.3562 11.9014 21.888 11.9014 22.538ZM5.98052 4.3144C5.87119 4.20485 5.74132 4.11793 5.59835 4.05862C5.45538 3.99932 5.30212 3.96879 5.14734 3.96879C4.99256 3.96879 4.8393 3.99932 4.69633 4.05862C4.55336 4.11793 4.4235 4.20485 4.31416 4.3144C4.2046 4.42374 4.11768 4.55361 4.05838 4.69658C3.99907 4.83954 3.96855 4.99281 3.96855 5.14759C3.96855 5.30237 3.99907 5.45563 4.05838 5.5986C4.11768 5.74157 4.2046 5.87143 4.31416 5.98077L5.56689 7.2335C6.0278 7.69441 6.78416 7.69441 7.23325 7.2335C7.68234 6.77259 7.69416 6.01622 7.23325 5.56713L5.98052 4.3144ZM20.5996 18.9335C20.4903 18.8239 20.3604 18.737 20.2174 18.6777C20.0745 18.6184 19.9212 18.5879 19.7664 18.5879C19.6117 18.5879 19.4584 18.6184 19.3154 18.6777C19.1725 18.737 19.0426 18.8239 18.9333 18.9335C18.8237 19.0428 18.7368 19.1727 18.6775 19.3157C18.6182 19.4586 18.5876 19.6119 18.5876 19.7667C18.5876 19.9215 18.6182 20.0747 18.6775 20.2177C18.7368 20.3607 18.8237 20.4905 18.9333 20.5999L20.186 21.8526C20.6469 22.3135 21.4033 22.3135 21.8523 21.8526C21.9619 21.7433 22.0488 21.6134 22.1081 21.4704C22.1674 21.3274 22.198 21.1742 22.198 21.0194C22.198 20.8646 22.1674 20.7114 22.1081 20.5684C22.0488 20.4254 21.9619 20.2956 21.8523 20.1862L20.5996 18.9335ZM21.8523 5.98077C21.9619 5.87143 22.0488 5.74157 22.1081 5.5986C22.1674 5.45563 22.198 5.30237 22.198 5.14759C22.198 4.99281 22.1674 4.83954 22.1081 4.69658C22.0488 4.55361 21.9619 4.42374 21.8523 4.3144C21.743 4.20485 21.6131 4.11793 21.4702 4.05862C21.3272 3.99932 21.1739 3.96879 21.0192 3.96879C20.8644 3.96879 20.7111 3.99932 20.5681 4.05862C20.4252 4.11793 20.2953 4.20485 20.186 4.3144L18.9333 5.56713C18.4723 6.02804 18.4723 6.78441 18.9333 7.2335C19.3942 7.68259 20.1505 7.69441 20.5996 7.2335L21.8523 5.98077ZM7.23325 20.5999C7.34281 20.4905 7.42973 20.3607 7.48904 20.2177C7.54834 20.0747 7.57887 19.9215 7.57887 19.7667C7.57887 19.6119 7.54834 19.4586 7.48904 19.3157C7.42973 19.1727 7.34281 19.0428 7.23325 18.9335C7.12392 18.8239 6.99405 18.737 6.85108 18.6777C6.70811 18.6184 6.55485 18.5879 6.40007 18.5879C6.24529 18.5879 6.09203 18.6184 5.94906 18.6777C5.80609 18.737 5.67622 18.8239 5.56689 18.9335L4.31416 20.1862C3.85325 20.6471 3.85325 21.4035 4.31416 21.8526C4.77507 22.3017 5.53143 22.3135 5.98052 21.8526L7.23325 20.5999Z" fill="#262626"/>
</svg>
