<svg width="47" height="23" viewBox="0 0 47 23" fill="none" xmlns="http://www.w3.org/2000/svg">
<path d="M11.4 21.8C17.1438 21.8 21.8 17.1438 21.8 11.4C21.8 5.65624 17.1438 1 11.4 1C5.65624 1 1 5.65624 1 11.4C1 17.1438 5.65624 21.8 11.4 21.8Z" stroke="#FAFAFA" stroke-width="2" stroke-linecap="round" stroke-linejoin="round"/>
<path d="M1 11.3999H21.8" stroke="#FAFAFA" stroke-width="2" stroke-linecap="round" stroke-linejoin="round"/>
<path d="M11.4 1C14.0013 3.84789 15.4797 7.54372 15.56 11.4C15.4797 15.2563 14.0013 18.9521 11.4 21.8C8.79866 18.9521 7.32033 15.2563 7.23999 11.4C7.32033 7.54372 8.79866 3.84789 11.4 1Z" stroke="#FAFAFA" stroke-width="2" stroke-linecap="round" stroke-linejoin="round"/>
<path d="M36.1119 12.6159C36.1119 12.6692 36.0959 12.9519 36.0639 13.4639H29.9839C30.1119 13.7946 30.3253 14.0506 30.6239 14.2319C30.9226 14.4026 31.2959 14.4879 31.7439 14.4879C32.1279 14.4879 32.4479 14.4399 32.7039 14.3439C32.9706 14.2479 33.2586 14.0826 33.5679 13.8479L35.4559 15.7519C34.6026 16.6906 33.3279 17.1599 31.6319 17.1599C30.5759 17.1599 29.6479 16.9679 28.8479 16.5839C28.0479 16.1892 27.4293 15.6452 26.9919 14.9519C26.5546 14.2586 26.3359 13.4799 26.3359 12.6159C26.3359 11.7412 26.5493 10.9626 26.9759 10.2799C27.4133 9.58656 28.0053 9.04789 28.7519 8.66389C29.5093 8.27989 30.3573 8.08789 31.2959 8.08789C32.1813 8.08789 32.9866 8.26389 33.7119 8.61589C34.4479 8.96789 35.0293 9.48522 35.4559 10.1679C35.8933 10.8506 36.1119 11.6666 36.1119 12.6159ZM31.3279 10.5519C30.9546 10.5519 30.6453 10.6532 30.3999 10.8559C30.1546 11.0586 29.9946 11.3466 29.9199 11.7199H32.7359C32.6613 11.3572 32.5013 11.0746 32.2559 10.8719C32.0106 10.6586 31.7013 10.5519 31.3279 10.5519Z" fill="#FAFAFA"/>
<path d="M43.3331 8.08789C44.4104 8.08789 45.2744 8.41322 45.9251 9.06389C46.5864 9.71456 46.9171 10.6959 46.9171 12.0079V16.9999H43.3011V12.6319C43.3011 11.6292 42.9437 11.1279 42.2291 11.1279C41.8237 11.1279 41.4931 11.2719 41.2371 11.5599C40.9917 11.8372 40.8691 12.2799 40.8691 12.8879V16.9999H37.2531V8.24789H40.6931V9.11189C41.0344 8.77056 41.4291 8.51456 41.8771 8.34389C42.3251 8.17322 42.8104 8.08789 43.3331 8.08789Z" fill="#FAFAFA"/>
</svg>
