<svg width="24" height="24" viewBox="0 0 24 24" fill="none" xmlns="http://www.w3.org/2000/svg">
<path d="M12 1C9.82441 1 7.69767 1.64514 5.88873 2.85383C4.07979 4.06253 2.66989 5.78049 1.83733 7.79048C1.00477 9.80047 0.78693 12.0122 1.21137 14.146C1.6358 16.2798 2.68345 18.2398 4.22183 19.7782C5.76021 21.3165 7.72022 22.3642 9.85401 22.7886C11.9878 23.2131 14.1995 22.9952 16.2095 22.1627C18.2195 21.3301 19.9375 19.9202 21.1462 18.1113C22.3549 16.3023 23 14.1756 23 12C23 11.4378 22.9511 10.8756 22.8778 10.3378C22.2671 11.1941 21.4601 11.8918 20.5245 12.3723C19.5889 12.8529 18.5518 13.1024 17.5 13.1C16.1008 13.1 14.7378 12.6556 13.6075 11.8309C12.4772 11.0062 11.638 9.84376 11.2111 8.5113C10.7842 7.17883 10.7915 5.74519 11.232 4.41716C11.6726 3.08913 12.5235 1.93534 13.6622 1.12222C13.1244 1.04889 12.5622 1 12 1Z" stroke="#FAFAFA" stroke-width="2"/>
</svg>
