<svg width="47" height="23" viewBox="0 0 47 23" fill="none" xmlns="http://www.w3.org/2000/svg">
<path d="M11.4 21.8C17.1438 21.8 21.8 17.1438 21.8 11.4C21.8 5.65624 17.1438 1 11.4 1C5.65624 1 1 5.65624 1 11.4C1 17.1438 5.65624 21.8 11.4 21.8Z" stroke="#FAFAFA" stroke-width="2" stroke-linecap="round" stroke-linejoin="round"/>
<path d="M1 11.3999H21.8" stroke="#FAFAFA" stroke-width="2" stroke-linecap="round" stroke-linejoin="round"/>
<path d="M11.4 1C14.0013 3.84789 15.4797 7.54372 15.56 11.4C15.4797 15.2563 14.0013 18.9521 11.4 21.8C8.79866 18.9521 7.32033 15.2563 7.23999 11.4C7.32033 7.54372 8.79866 3.84789 11.4 1Z" stroke="#FAFAFA" stroke-width="2" stroke-linecap="round" stroke-linejoin="round"/>
<path d="M32.24 9.19189C32.88 8.45589 33.824 8.08789 35.072 8.08789V11.2879C34.784 11.2452 34.5174 11.2239 34.272 11.2239C33.0347 11.2239 32.416 11.8532 32.416 13.1119V16.9999H28.8V8.24789H32.24V9.19189Z" fill="#FAFAFA"/>
<path d="M45.6649 8.24789V16.9999H42.2249V16.1679C41.9049 16.4986 41.5316 16.7492 41.1049 16.9199C40.6783 17.0799 40.2249 17.1599 39.7449 17.1599C38.6356 17.1599 37.7449 16.8239 37.0729 16.1519C36.4009 15.4692 36.0649 14.4452 36.0649 13.0799V8.24789H39.6809V12.4559C39.6809 13.0532 39.7769 13.4799 39.9689 13.7359C40.1609 13.9919 40.4436 14.1199 40.8169 14.1199C41.1689 14.1199 41.4623 13.9812 41.6969 13.7039C41.9316 13.4159 42.0489 12.9679 42.0489 12.3599V8.24789H45.6649Z" fill="#FAFAFA"/>
</svg>
