<?xml version="1.0" encoding="utf-8"?>
<!-- Generator: Adobe Illustrator 26.4.1, SVG Export Plug-In . SVG Version: 6.00 Build 0)  -->
<svg version="1.1" id="Layer_1" xmlns="http://www.w3.org/2000/svg" xmlns:xlink="http://www.w3.org/1999/xlink" x="0px" y="0px"
	 viewBox="0 0 127 127" style="enable-background:new 0 0 127 127;" xml:space="preserve">
<style type="text/css">
	.st0{fill:#FAFAFA;}
	.st1{fill:#C54C82;}
</style>
<path class="st0" d="M63.5,127c35.1,0,63.5-28.4,63.5-63.5S98.6,0,63.5,0S0,28.4,0,63.5S28.4,127,63.5,127z"/>
<polygon class="st1" points="76.5,50 80.1,65.1 90.8,62.5 87.3,47.4 "/>
<polygon class="st1" points="71.1,27.3 74.7,42.4 85.5,39.9 82,24.7 "/>
<path class="st1" d="M69.3,19.7l10.9-2.5l-2.2-9.4c-3.9-1.3-8-2.2-12.2-2.5L69.3,19.7z"/>
<polygon class="st1" points="82.3,72.6 85.8,87.8 96.4,85.2 93,70.1 "/>
<path class="st1" d="M87.5,95.3l2.7,11.9c3.4-2.2,6.6-4.7,9.4-7.5l-1.5-6.9L87.5,95.3z"/>
<path class="st1" d="M40.3,26.5l-3.8-15.1l-3.1,0.7c-2.5,1.4-4.8,3-7.1,4.7L29.5,29L40.3,26.5z"/>
<path class="st1" d="M103.6,95.3c7.7-9.5,12.3-21.6,12.3-34.8c0-22-12.9-41.1-31.5-50L103.6,95.3z"/>
<polygon class="st1" points="46,49.2 42.2,34.1 31.4,36.6 35.3,51.7 "/>
<path class="st1" d="M18.9,23.9C10.3,33.7,5.1,46.4,5.1,60.4c0,23.8,15,44,36,51.9L18.9,23.9z"/>
<path class="st1" d="M62.6,115.8l-3.3-13.7l-10.5,2.5l2.5,10.4c3,0.5,6,0.8,9.1,0.8C61.2,115.8,61.9,115.8,62.6,115.8z"/>
<polygon class="st1" points="57.6,94.5 53.9,79.4 43.3,82 47,97.1 "/>
<polygon class="st1" points="51.6,71.9 47.9,56.7 37.2,59.3 41,74.4 "/>
</svg>
